<svg fill='none' height='30' viewBox='0 0 30 30' width='30'
     xmlns='http://www.w3.org/2000/svg'>
    <path id='telegram'
          d='M20.303 2.984a2.437 2.437 0 0 0-.787.188c-.216.085-.988.41-2.22.926l-4.599 1.931C9.221 7.491 5.314 9.136 3.313 9.98c-.07.028-.348.114-.657.35-.309.235-.652.747-.652 1.308 0 .452.226.912.498 1.175.272.264.548.387.78.479v-.002c.78.31 3.109 1.243 3.663 1.465.197.59 1.042 3.113 1.242 3.748h-.001c.142.45.28.742.472.986a1.168 1.168 0 0 0 .526.405l.025.007-.023-.005c.017.007.033.017.05.023.03.01.05.01.088.018.137.042.274.07.4.07.544 0 .878-.295.878-.295l.021-.016 2.348-1.986 2.875 2.66c.052.074.464.631 1.416.631.568 0 1.017-.281 1.304-.576.288-.295.467-.597.547-1.006l.002-.002c.064-.33 2.817-14.15 2.817-14.15l-.006.023c.085-.382.11-.752.01-1.129a1.62 1.62 0 0 0-.704-.937 1.65 1.65 0 0 0-.93-.239zm-.395 2.19c-.109.546-2.574 12.932-2.726 13.709l-4.153-3.842-2.806 2.373.777-3.039s5.363-5.428 5.686-5.744c.26-.253.314-.342.314-.43 0-.117-.06-.201-.2-.201-.124 0-.294.12-.384.176-1.144.713-6.015 3.489-8.41 4.851-.144-.057-2.309-.927-3.475-1.392a44934.035 44934.035 0 0 1 13.54-5.694c1.037-.435 1.579-.66 1.837-.767zm-2.756 13.851h.002l-.002.006c.002-.006 0 0 0-.006z'
          fill='currentColor'></path>
    <path id='linkedIn'
          fill="currentColor"
          d="M15 .6C7.047.6.6 7.047.6 15S7.047 29.4 15 29.4 29.4 22.953 29.4 15 22.953.6 15 .6Zm-3.525 20.37H8.56v-9.384h2.916v9.384ZM10 10.433c-.92 0-1.516-.653-1.516-1.46 0-.823.613-1.456 1.554-1.456.94 0 1.516.633 1.534 1.456 0 .807-.594 1.46-1.572 1.46Zm12.126 10.536H19.21v-5.2c0-1.211-.423-2.033-1.477-2.033-.806 0-1.284.556-1.496 1.092-.078.19-.097.46-.097.729v5.41h-2.92v-6.39c0-1.171-.037-2.15-.076-2.994h2.533l.134 1.304h.058c.384-.612 1.325-1.515 2.898-1.515 1.919 0 3.357 1.285 3.357 4.048v5.549Z"/>
    <path id='facebook'
          fill="currentColor"
          d="M4.5 4.999h2.25l-.281 2.25H4.5v6.75H1.582v-6.75H0v-2.25h1.582V3.487c0-.984.246-1.722.738-2.215C2.813.757 3.633.5 4.781.5H6.75v2.25H5.555c-.446 0-.739.07-.88.211-.116.14-.175.375-.175.703V5Z"
    />
</svg>